<svg width="59" height="66" viewBox="0 0 59 66" fill="none" xmlns="http://www.w3.org/2000/svg">
<mask id="mask0_238_922" style="mask-type:luminance" maskUnits="userSpaceOnUse" x="3" y="0" width="56" height="49">
<path d="M3.96631 0.0563965L58.0759 4.35024e-05L58.1264 48.2347L4.01676 48.2911L3.96631 0.0563965Z" fill="white"/>
</mask>
<g mask="url(#mask0_238_922)">
<path d="M31.0181 0.0282232C38.489 0.0204425 45.2573 2.71272 50.1556 7.06835C55.0599 11.4258 58.0942 17.452 58.1012 24.1138C58.1081 30.7756 55.0864 36.8081 50.1912 41.1757C45.3021 45.5487 38.5395 48.2551 31.0685 48.2629C23.5956 48.2707 16.8293 45.5784 11.9311 41.2156C7.03482 36.8581 3.9985 30.832 3.99153 24.1701C3.98456 17.5083 7.00827 11.4758 11.8954 7.1082C16.7845 2.74238 23.5451 0.0360059 31.0181 0.0282232ZM48.6652 8.39975C44.1473 4.38249 37.9068 1.89869 31.0201 1.90586C24.1333 1.91303 17.9041 4.40982 13.3885 8.43649C8.88108 12.4704 6.09338 18.0287 6.0998 24.1679C6.10623 30.3072 8.90556 35.8669 13.4214 39.8842C17.9454 43.9014 24.1798 46.3852 31.0666 46.3781C37.9533 46.3709 44.1886 43.8741 48.6981 39.8474C53.2055 35.8208 55.9932 30.2552 55.9868 24.116C55.9804 17.9767 53.1811 12.4242 48.6652 8.39975Z" fill="black"/>
</g>
<path d="M28.8044 44.3388L28.8011 41.144C27.9945 41.0295 27.2323 40.8879 26.5165 40.7121C25.5278 40.468 24.6523 40.1716 23.8838 39.8192C23.091 39.4597 22.3527 38.9793 21.6689 38.3962C20.1758 37.1166 19.0846 35.4887 18.4824 33.7198C18.162 32.7777 17.9548 31.7527 17.8707 30.6409C17.8318 30.1382 18.2417 29.6981 18.7975 29.6417L23.2477 28.8856C23.8197 28.7895 24.3739 29.1205 24.4815 29.6358C24.4897 29.67 24.4978 29.697 24.4978 29.7313C24.6646 30.7294 24.8879 31.5833 25.1696 32.3019C25.6803 33.6096 26.5486 34.6953 27.9198 35.4129C28.201 35.5549 28.4901 35.6772 28.7955 35.7705L28.7841 24.9246C28.0826 24.7685 27.3749 24.5729 26.6611 24.3357C25.6703 24.0052 24.6652 23.5864 23.654 23.0775C22.8471 22.6783 22.131 22.1979 21.5139 21.6418C20.8887 21.0874 20.3565 20.4501 19.9211 19.7442C19.4939 19.0455 19.1656 18.2944 18.9526 17.4873C18.7395 16.6929 18.6234 15.8587 18.6225 14.9974C18.6209 13.4441 18.9388 12.0256 19.562 10.7438C20.7238 8.37481 22.8303 6.6085 25.538 5.73173C26.4958 5.4244 27.5689 5.19264 28.7633 5.03642L28.7622 3.94985C28.7616 3.43449 29.2322 3.00693 29.8184 3.00632L32.4744 3.00356C33.0525 3.00295 33.532 3.42952 33.5326 3.94488L33.5337 5.03146C34.5526 5.16554 35.4968 5.37539 36.3582 5.6592C38.8089 6.46392 40.7733 7.98092 42.0004 10.0555C42.6483 11.1468 43.0842 12.3879 43.2979 13.7644L43.306 13.7644C43.3813 14.2796 42.9796 14.7558 42.4015 14.8303C42.3935 14.8303 42.3854 14.8303 42.3793 14.8375L37.7612 15.4586C36.3606 15.651 36.3969 13.6292 36.016 12.7953C35.5885 11.8731 34.9328 11.1675 33.9439 10.6946C33.8145 10.6262 33.677 10.5723 33.5395 10.5184L33.5495 20.0832C34.3339 20.2662 35.0194 20.4348 35.6118 20.5892C37.0959 20.9823 38.1554 21.3542 39.4721 22.1186C40.1113 22.491 40.6757 22.8976 41.1612 23.3314C41.6488 23.7651 42.092 24.253 42.4807 24.7806C43.258 25.8519 43.7767 27.0731 44.0368 28.327C44.1668 28.9846 44.2363 29.6494 44.237 30.3216C44.2385 31.828 43.9651 33.2176 43.4186 34.4813C42.8803 35.7559 42.0588 36.9028 40.9724 37.9292C39.8859 38.9539 38.6295 39.7354 37.2232 40.2865C36.0977 40.7219 34.8812 41.0079 33.5715 41.1444L33.5748 44.3339C33.5754 44.8564 33.0968 45.2768 32.5186 45.2774L29.8626 45.2801C29.2764 45.2808 28.805 44.8614 28.8044 44.3388ZM30.9146 40.3273L30.9178 43.3924L31.4595 43.3918L31.4562 40.2799C31.4557 39.7771 31.8959 39.3622 32.4579 39.3346C32.6562 39.5921 35.9279 38.7417 36.3765 38.5647C37.5261 38.1166 38.5523 37.4776 39.4408 36.6352C40.3314 35.8 40.9995 34.8568 41.4471 33.8185C41.8948 32.7656 42.122 31.605 42.1206 30.3238C42.12 29.7327 42.0669 29.185 41.9592 28.6625C41.7601 27.6789 41.3264 26.6486 40.709 25.8077C40.4195 25.4008 40.0674 25.0209 39.6648 24.6628C39.2763 24.3172 38.8273 23.9915 38.3176 23.6929C37.8059 23.3961 37.2517 23.1318 36.635 22.8874C36.6188 22.882 36.5965 22.8748 36.5743 22.8676L36.5743 22.8604C36.2386 22.7328 35.7129 22.5766 35.0214 22.3953C34.3137 22.2051 33.3999 21.9898 32.2878 21.7387C31.8006 21.6581 31.4364 21.2783 31.4359 20.817L31.4238 9.26644C31.4237 9.19797 31.4297 9.12949 31.4458 9.0628C31.5585 8.55273 32.114 8.2278 32.6842 8.32812C33.5232 8.48401 34.2754 8.72109 34.9387 9.03754C36.3766 9.72259 37.3439 10.7451 37.9618 12.0815C38.1603 12.5084 38.3205 12.9623 38.4504 13.4577L41.0212 13.1162C40.8243 12.3146 40.5264 11.5905 40.1376 10.9332C39.1535 9.27822 37.5917 8.06532 35.6283 7.42407C34.6921 7.11871 33.6347 6.90899 32.4622 6.8093C31.8841 6.80269 31.4208 6.38332 31.4203 5.86796L31.4192 4.8913L30.8775 4.89187L30.8785 5.86132C30.879 6.34244 30.4772 6.75731 29.9295 6.80473C28.5207 6.92873 27.3041 7.16065 26.2614 7.5005C24.0933 8.20192 22.4291 9.58755 21.4952 11.495C20.995 12.5262 20.7375 13.6924 20.7388 14.9952C20.7396 15.734 20.8232 16.4204 20.9997 17.0509C21.1661 17.6814 21.4255 18.2776 21.7697 18.8413C22.1119 19.3959 22.5228 19.8838 23.0043 20.3176C23.4919 20.7514 24.0461 21.1238 24.6711 21.4349C25.5913 21.8952 26.5053 22.2745 27.4031 22.5781C28.2726 22.8691 29.1238 23.0862 29.9608 23.2349C30.4864 23.2884 30.8972 23.6808 30.8977 24.162L30.911 36.9288C30.911 36.9558 30.9111 36.9973 30.9051 37.0297C30.8429 37.5469 30.3259 37.9205 29.7477 37.8724L29.7477 37.8652C28.7127 37.7726 27.7462 37.4943 26.8563 37.0285C25.0522 36.0862 23.8561 34.6567 23.1772 32.9203C22.94 32.3241 22.7493 31.6522 22.5808 30.9135L20.0707 31.3378C20.1624 31.9954 20.3065 32.6061 20.5052 33.1807C20.9939 34.6326 21.9009 35.9885 23.1269 37.0378C23.661 37.4986 24.2395 37.871 24.8482 38.1496C25.4954 38.4463 26.2334 38.6978 27.0705 38.9005C27.9156 39.1033 28.8739 39.2717 29.9555 39.3913C30.4952 39.4321 30.9141 39.8389 30.9146 40.3273ZM28.7689 10.3954C28.48 10.4768 28.2052 10.578 27.9546 10.6936C27.3849 10.9519 26.89 11.2912 26.4801 11.706C26.0621 12.1281 25.7493 12.5825 25.5456 13.0711C25.34 13.5524 25.2334 14.0877 25.234 14.6788C25.2346 15.2626 25.3261 15.7905 25.5025 16.266C25.6788 16.7199 25.938 17.1341 26.28 17.5067C26.6301 17.8794 27.1176 18.2248 27.7344 18.5359C28.0459 18.6906 28.3977 18.8398 28.7779 18.9817L28.7689 10.3954ZM27.0008 9.01878C27.7847 8.66658 28.6597 8.4206 29.6258 8.28445C29.6864 8.26997 29.7551 8.26449 29.8239 8.26442C30.4101 8.26381 30.8815 8.69038 30.882 9.20574L30.8936 20.2896C30.8937 20.3851 30.8797 20.486 30.8494 20.5815C30.6822 21.0772 30.0963 21.3625 29.5322 21.2136C28.4363 20.9228 27.494 20.5706 26.6931 20.1714C25.8558 19.7452 25.1782 19.2576 24.6601 18.7157C24.1502 18.1667 23.7614 17.549 23.5101 16.8645C23.2506 16.1873 23.1286 15.454 23.1278 14.6809C23.1269 13.8809 23.2697 13.1275 23.566 12.4154C23.8685 11.7088 24.3105 11.0578 24.8961 10.4661C25.4877 9.86907 26.1947 9.38722 27.0008 9.01878ZM33.5659 35.7656C33.8629 35.677 34.1438 35.5758 34.4185 35.4457C35.0105 35.1676 35.5579 34.7796 36.0445 34.2854C36.5311 33.7893 36.8884 33.2466 37.1323 32.6427C37.3742 32.0316 37.4948 31.3467 37.494 30.5935C37.4934 29.9628 37.4099 29.3989 37.2416 28.9107C36.8523 27.7921 36.1584 27.2234 35.0097 26.6606C34.5911 26.452 34.1037 26.2489 33.5557 26.0584L33.5659 35.7656ZM35.3946 37.1079C34.5642 37.4944 33.667 37.7458 32.6847 37.8568C32.6322 37.8694 32.5715 37.8695 32.5109 37.8695C31.9247 37.8702 31.4533 37.4508 31.4528 36.9354L31.44 24.738C31.4399 24.6371 31.4539 24.5344 31.4922 24.4262C31.6655 23.9305 32.2676 23.6668 32.8237 23.8212L32.8237 23.8284C34.0935 24.1929 35.1591 24.5864 36.0288 25.0125C37.6568 25.8109 38.7008 26.7522 39.2502 28.3536C39.4875 29.0309 39.6095 29.7768 39.6104 30.5913C39.6114 31.5535 39.4445 32.4493 39.1179 33.2713C38.7914 34.1059 38.2908 34.8597 37.6366 35.5253C36.9824 36.1837 36.231 36.7124 35.3946 37.1079Z" fill="black"/>
<path fill-rule="evenodd" clip-rule="evenodd" d="M23.566 12.4154C23.8684 11.7087 24.3104 11.0577 24.896 10.4661C25.4876 9.869 26.1946 9.38714 27.0007 9.0187C27.7847 8.6665 28.6596 8.42053 29.6257 8.28438C29.6863 8.2699 29.7551 8.26442 29.8238 8.26435C30.41 8.26374 30.8814 8.69031 30.8819 9.20567L30.8935 20.2895C30.8936 20.385 30.8796 20.4859 30.8494 20.5814C30.6821 21.0772 30.0962 21.3625 29.5321 21.2135C28.4362 20.9227 27.4939 20.5705 26.693 20.1713C25.8557 19.7451 25.1781 19.2575 24.66 18.7157C24.1501 18.1666 23.7613 17.5489 23.51 16.8644C23.2505 16.1872 23.1285 15.4539 23.1277 14.6809C23.1268 13.8808 23.2696 13.1274 23.566 12.4154ZM24.671 21.4348C25.5912 21.8951 26.5052 22.2744 27.403 22.578C28.2725 22.869 29.1237 23.0862 29.9607 23.2348C30.4863 23.2884 30.8971 23.6808 30.8976 24.1619L30.9109 36.9287C30.911 36.9557 30.911 36.9972 30.905 37.0296C30.8429 37.5469 30.3258 37.9204 29.7476 37.8723L29.7476 37.8651C28.7126 37.7725 27.7461 37.4942 26.8562 37.0284C25.0522 36.0861 23.856 34.6566 23.1771 32.9202C22.94 32.324 22.7492 31.6521 22.5807 30.9135L20.0706 31.3377C20.1623 31.9953 20.3064 32.6061 20.5051 33.1807C20.9938 34.6325 21.9008 35.9885 23.1268 37.0377C23.6609 37.4985 24.2394 37.8709 24.8481 38.1495C25.4953 38.4462 26.2333 38.6977 27.0704 38.9004C27.9155 39.1032 28.8738 39.2716 29.9554 39.3912C30.4951 39.4321 30.914 39.8389 30.9145 40.3272L30.9177 43.3923L31.4594 43.3918L31.4562 40.2798C31.4556 39.777 31.8959 39.3621 32.4578 39.3345C32.6561 39.592 35.9278 38.7417 36.3764 38.5646C37.5261 38.1165 38.5522 37.4776 39.4408 36.6351C40.3313 35.7999 40.9994 34.8568 41.447 33.8184C41.8947 32.7656 42.1219 31.6049 42.1205 30.3237C42.1199 29.7326 42.0668 29.1849 41.9591 28.6625C41.76 27.6788 41.3263 26.6485 40.7089 25.8077C40.4195 25.4007 40.0674 25.0209 39.6647 24.6627C39.2763 24.3171 38.8272 23.9914 38.3175 23.6928C37.8058 23.3961 37.2516 23.1317 36.6349 22.8873C36.6187 22.8819 36.5965 22.8748 36.5742 22.8676L36.5742 22.8604C36.2385 22.7328 35.7128 22.5765 35.0213 22.3953C34.3136 22.205 33.3998 21.9897 32.2878 21.7386C31.8005 21.658 31.4363 21.2782 31.4358 20.8169L31.4237 9.26637C31.4237 9.1979 31.4296 9.12942 31.4457 9.06273C31.5584 8.55266 32.1139 8.22773 32.6841 8.32804C33.5231 8.48394 34.2753 8.72101 34.9386 9.03747C36.3765 9.72251 37.3438 10.745 37.9617 12.0814C38.1603 12.5083 38.3204 12.9622 38.4503 13.4576L41.0211 13.1162C40.8242 12.3145 40.5263 11.5904 40.1375 10.9331C39.1534 9.27814 37.5916 8.06525 35.6282 7.424C34.692 7.11864 33.6346 6.90891 32.4622 6.80922C31.884 6.80262 31.4207 6.38325 31.4202 5.86789L31.4191 4.89123L30.8774 4.89179L30.8784 5.86124C30.8789 6.34236 30.4771 6.75723 29.9294 6.80465C28.5206 6.92865 27.304 7.16057 26.2614 7.50042C24.0932 8.20184 22.429 9.58748 21.4951 11.4949C20.9949 12.5262 20.7374 13.6923 20.7388 14.9951C20.7395 15.7339 20.8231 16.4204 20.9996 17.0509C21.1661 17.6814 21.4254 18.2775 21.7696 18.8412C22.1118 19.3958 22.5227 19.8837 23.0042 20.3175C23.4918 20.7513 24.0461 21.1237 24.671 21.4348ZM31.4527 36.9354L31.4399 24.7379C31.4398 24.637 31.4538 24.5343 31.4921 24.4261C31.6655 23.9304 32.2675 23.6667 32.8236 23.8211L32.8236 23.8283C34.0934 24.1928 35.159 24.5863 36.0287 25.0125C37.6567 25.8108 38.7007 26.7522 39.2502 28.3535C39.4874 29.0308 39.6094 29.7767 39.6103 30.5912C39.6113 31.5534 39.4445 32.4492 39.1179 33.2712C38.7913 34.1059 38.2908 34.8596 37.6365 35.5252C36.9823 36.1836 36.2309 36.7123 35.3945 37.1078C34.5641 37.4943 33.6669 37.7457 32.6846 37.8567C32.6321 37.8693 32.5715 37.8694 32.5108 37.8695C31.9246 37.8701 31.4532 37.4507 31.4527 36.9354Z" fill="#37D37B"/>
<path fill-rule="evenodd" clip-rule="evenodd" d="M33.5397 10.5184L33.5497 20.0832C34.3342 20.2662 35.0196 20.4348 35.612 20.5892C37.0961 20.9823 38.1557 21.3542 39.4724 22.1186C40.1115 22.491 40.6759 22.8976 41.1615 23.3314C41.6491 23.7652 42.0923 24.253 42.4809 24.7806C43.2582 25.852 43.777 27.0731 44.037 28.327C44.1671 28.9846 44.2365 29.6495 44.2372 30.3216C44.2388 31.828 43.9653 33.2176 43.4189 34.4813C42.8805 35.7559 42.059 36.9028 40.9726 37.9292C39.8862 38.9539 38.6297 39.7354 37.2234 40.2865C36.098 40.7219 34.8814 41.0079 33.5717 41.1444L33.5751 44.3339C33.5756 44.8564 33.097 45.2768 32.5189 45.2774L29.8628 45.2802C29.2766 45.2808 28.8052 44.8614 28.8047 44.3388L28.8013 41.144C27.9947 41.0295 27.2325 40.8879 26.5168 40.7121C25.5281 40.4681 24.6525 40.1716 23.884 39.8193C23.0913 39.4597 22.353 38.9793 21.6691 38.3962C20.176 37.1166 19.0848 35.4888 18.4826 33.7199C18.1623 32.7778 17.955 31.7527 17.871 30.641C17.8321 30.1383 18.2419 29.6982 18.7977 29.6417L23.248 28.8857C23.8199 28.7896 24.3741 29.1205 24.4818 29.6358C24.4899 29.67 24.498 29.697 24.4981 29.7313C24.6649 30.7294 24.8881 31.5833 25.1698 32.302C25.6806 33.6097 26.5489 34.6953 27.9201 35.4129C28.2012 35.5549 28.4904 35.6772 28.7957 35.7706L28.7844 24.9246C28.0828 24.7686 27.3751 24.5729 26.6613 24.3358C25.6705 24.0052 24.6655 23.5864 23.6543 23.0775C22.8473 22.6783 22.1313 22.198 21.5142 21.6418C20.889 21.0875 20.3567 20.4501 19.9214 19.7442C19.4941 19.0455 19.1659 18.2944 18.9528 17.4874C18.7397 16.6929 18.6236 15.8587 18.6227 14.9974C18.6211 13.4441 18.939 12.0257 19.5623 10.7438C20.7241 8.37484 22.8305 6.60853 25.5382 5.73176C26.496 5.42443 27.5691 5.19266 28.7636 5.03645L28.7624 3.94987C28.7619 3.43451 29.2324 3.00696 29.8186 3.00635L32.4747 3.00358C33.0528 3.00298 33.5323 3.42955 33.5328 3.94491L33.534 5.03148C34.5529 5.16557 35.4971 5.37541 36.3585 5.65923C38.8092 6.46395 40.7735 7.98095 42.0006 10.0555C42.6486 11.1468 43.0845 12.3879 43.2982 13.7644L43.3062 13.7644C43.3816 14.2797 42.9798 14.7558 42.4018 14.8303L42.3796 14.8375L37.7614 15.4586C36.3608 15.6511 36.3971 13.6292 36.0162 12.7953C35.5888 11.8732 34.9331 11.1675 33.9442 10.6946C33.8147 10.6263 33.6772 10.5723 33.5397 10.5184ZM55.9869 24.116C55.9805 17.9768 53.1812 12.4243 48.6653 8.3998C44.1474 4.38254 37.9069 1.89873 31.0202 1.90591C24.1334 1.91308 17.9042 4.40987 13.3886 8.43653C8.8812 12.4704 6.0935 18.0287 6.09992 24.168C6.10634 30.3072 8.90567 35.867 13.4215 39.8842C17.9455 43.9015 24.1799 46.3853 31.0667 46.3781C37.9534 46.3709 44.1887 43.8741 48.6982 39.8475C53.2057 35.8208 55.9934 30.2553 55.9869 24.116Z" fill="#C7D7CD"/>
<path fill-rule="evenodd" clip-rule="evenodd" d="M28.7779 18.9817L28.7689 10.3954C28.4799 10.4768 28.2051 10.5779 27.9546 10.6935C27.3848 10.9518 26.89 11.2911 26.4801 11.706C26.0621 12.1281 25.7492 12.5825 25.5456 13.071C25.3399 13.5524 25.2334 14.0876 25.234 14.6787C25.2346 15.2625 25.3261 15.7904 25.5024 16.2659C25.6788 16.7198 25.9379 17.134 26.2799 17.5067C26.63 17.8793 27.1175 18.2248 27.7344 18.5359C28.0458 18.6905 28.3977 18.8397 28.7779 18.9817Z" fill="#C7D7CD"/>
<path fill-rule="evenodd" clip-rule="evenodd" d="M33.5557 26.0585L33.5658 35.7656C33.8629 35.677 34.1437 35.5758 34.4185 35.4458C35.0105 35.1676 35.5578 34.7797 36.0445 34.2854C36.5311 33.7894 36.8883 33.2466 37.1323 32.6427C37.3742 32.0316 37.4948 31.3467 37.494 30.5935C37.4933 29.9628 37.4098 29.3989 37.2416 28.9107C36.8523 27.7921 36.1584 27.2234 35.0096 26.6606C34.591 26.452 34.1037 26.2489 33.5557 26.0585Z" fill="#C7D7CD"/>
<mask id="mask1_238_922" style="mask-type:luminance" maskUnits="userSpaceOnUse" x="0" y="44" width="28" height="22">
<path d="M0 44.3381L27.4257 44.3096L27.4474 65.0681L0.0217146 65.0966L0 44.3381Z" fill="white"/>
</mask>
<g mask="url(#mask1_238_922)">
<mask id="mask2_238_922" style="mask-type:luminance" maskUnits="userSpaceOnUse" x="-4" y="43" width="35" height="24">
<path d="M-3.98117 60.659L0.532363 43.1249L30.0383 49.1559L25.5228 66.69L-3.98117 60.659Z" fill="white"/>
</mask>
<g mask="url(#mask2_238_922)">
<mask id="mask3_238_922" style="mask-type:luminance" maskUnits="userSpaceOnUse" x="-4" y="43" width="35" height="24">
<path d="M-3.98117 60.659L0.532363 43.1249L30.0383 49.1559L25.5228 66.69L-3.98117 60.659Z" fill="white"/>
</mask>
<g mask="url(#mask3_238_922)">
<path d="M15.973 54.1404C16.2757 53.6914 16.5562 53.2262 16.8974 52.8006C17.0084 52.6581 17.2772 52.6146 17.4732 52.5261C17.5664 52.7062 17.7424 52.8862 17.7426 53.0664C17.7336 54.153 17.6499 55.2396 17.655 56.3262C17.6673 58.375 17.7422 60.4255 17.7484 62.4744C17.751 63.0041 17.6242 63.5376 17.5035 64.0621C17.4612 64.2514 17.2956 64.4408 17.1341 64.5833C16.7726 64.9008 16.4167 64.8075 16.2667 64.3752C16.2302 64.2671 16.2038 64.1536 16.1997 64.0401C16.1036 61.0976 16.0075 58.1551 15.9256 55.2108C15.9172 54.8738 15.9977 54.535 16.0378 54.1962C16.0155 54.1782 15.9953 54.1584 15.973 54.1404ZM2.32785 57.0431C2.45327 57.1349 2.81098 57.0606 3.01302 56.9703C3.66965 56.6795 4.29186 56.3275 4.94648 56.0367C7.02952 55.1065 9.13687 54.2196 11.2017 53.2606C11.8219 52.9734 12.3693 52.5386 12.8721 52.1002C13.0579 51.9378 13.106 51.5521 13.0411 51.3071C13.0086 51.1882 12.5699 51.1202 12.3071 51.0953C12.1191 51.0775 11.8989 51.1371 11.7251 51.2166C9.13295 52.4032 6.53472 53.5826 3.96079 54.8034C3.45368 55.0436 3.02555 55.4278 2.59132 55.7743C2.39542 55.9312 2.27033 56.1602 2.06846 56.4145C2.1455 56.6271 2.15995 56.9172 2.32785 57.0431ZM9.45272 45.0527C9.30515 45.0438 9.1596 45.0314 9.01406 45.0243C7.08962 44.9218 5.16719 44.8103 3.24277 44.7222C2.47664 44.687 1.70446 44.6697 0.93841 44.7102C0.370441 44.7414 0.00905448 45.158 0.00348791 45.6338C-0.00202535 46.1599 0.468959 46.1684 0.85104 46.2113C3.03638 46.4541 5.22172 46.6933 7.41106 46.8964C8.1469 46.9641 8.89496 47.1129 9.62837 46.7824C10.1032 46.5675 10.6001 46.3129 10.4521 45.8319C10.3507 45.4968 9.87135 45.2523 9.56178 44.9661C9.52543 44.995 9.48907 45.0238 9.45272 45.0527ZM26.7368 59.9801C25.9342 58.0006 25.1115 56.0265 24.2928 54.0524C24.2361 53.9155 24.1692 53.7768 24.0781 53.6562C23.8211 53.3087 23.5118 53.2838 23.1644 53.5689C22.7605 53.8972 22.6337 54.4055 22.8626 54.917C23.7845 56.9793 24.7064 59.0434 25.6545 61.0948C25.7497 61.3056 26.0896 61.6278 26.1967 61.5952C26.4877 61.5048 26.7118 61.2523 26.9764 61.0556C26.887 60.6395 26.8645 60.2935 26.7368 59.9801Z" fill="black"/>
</g>
</g>
</g>
</svg>
